<svg xmlns:xlink="http://www.w3.org/1999/xlink" width="36" height="36" viewBox="0 0 36 36" fill="none" xmlns="http://www.w3.org/2000/svg"><path d="M9.29343 9.29419H14.9994V15.0002H9.29343V9.29419Z" stroke="#FF0039" stroke-width="1.66667px" stroke-linecap="round" stroke-linejoin="round" fill="none"></path><path d="M9.18161 21.1802H15.0016V27.0002H9.18161V21.1802Z" stroke="#FF0039" stroke-width="1.66667px" stroke-linecap="round" stroke-linejoin="round" fill="none"></path><path d="M21.0005 24.0001V21.0001" stroke="#FF0039" stroke-width="1.66667px" stroke-linecap="round" stroke-linejoin="round" fill="none"></path><path d="M26.7011 26.6997H23.7011" stroke="#FF0039" stroke-width="1.66667px" stroke-linecap="round" stroke-linejoin="round" fill="none"></path><path d="M26.8184 14.8198H20.9984V8.99983H26.8184V14.8198Z" stroke="#FF0039" stroke-width="1.66667px" stroke-linecap="round" stroke-linejoin="round" fill="none"></path><path d="M32.2517 11.9669V6.74988C32.2517 5.09238 30.9092 3.74988 29.2517 3.74988H24.0347" stroke="#FF0039" stroke-width="1.66667px" stroke-linecap="round" stroke-linejoin="round" fill="none"></path><path d="M24.4504 21.0001H26.7004" stroke="#FF0039" stroke-width="1.66667px" stroke-linecap="round" stroke-linejoin="round" fill="none"></path><path d="M11.9665 3.74988H6.74954C5.09204 3.74988 3.74954 5.09238 3.74954 6.74988V11.9669" stroke="#FF0039" stroke-width="1.66667px" stroke-linecap="round" stroke-linejoin="round" fill="none"></path><path d="M3.74954 24.0339V29.2509C3.74954 30.9084 5.09204 32.2509 6.74954 32.2509H11.9665" stroke="#FF0039" stroke-width="1.66667px" stroke-linecap="round" stroke-linejoin="round" fill="none"></path><path d="M24.0347 32.2509H29.2517C30.9092 32.2509 32.2517 30.9084 32.2517 29.2509V24.0339" stroke="#FF0039" stroke-width="1.66667px" stroke-linecap="round" stroke-linejoin="round" fill="none"></path></svg>